<svg xmlns="http://www.w3.org/2000/svg" viewBox="0 0 100 100">
    <defs>
        <linearGradient id="grad" x1="0%" y1="0%" x2="100%" y2="100%">
            <stop offset="0%" style="stop-color:#8b5cf6;stop-opacity:1" />
            <stop offset="100%" style="stop-color:#7c3aed;stop-opacity:1" />
        </linearGradient>
    </defs>
    <!-- Potion bottle -->
    <path d="M35 25 L35 15 L65 15 L65 25 L60 30 L60 75 Q60 85 50 85 Q40 85 40 75 L40 30 Z"
        fill="url(#grad)" stroke="#5b21b6" stroke-width="2" />
    <!-- Bottle neck -->
    <rect x="38" y="10" width="24" height="8" rx="2" fill="#6d28d9" />
    <!-- Cork -->
    <rect x="40" y="5" width="20" height="8" rx="3" fill="#d4a373" />
    <!-- Bubbles -->
    <circle cx="48" cy="55" r="4" fill="rgba(255,255,255,0.3)" />
    <circle cx="55" cy="65" r="3" fill="rgba(255,255,255,0.3)" />
    <circle cx="45" cy="70" r="2" fill="rgba(255,255,255,0.3)" />
    <!-- Sparkle -->
    <path d="M70 30 L72 35 L77 37 L72 39 L70 44 L68 39 L63 37 L68 35 Z" fill="#fbbf24" />
</svg>